<svg width="1920" height="266" viewBox="0 0 1920 266" fill="none" xmlns="http://www.w3.org/2000/svg">
    <g clip-path="url(#clip0_13_43)">
        <path d="M1920 133L1856 146.3C1792 159.6 1664 186.2 1536 186.2C1408 186.2 1280 159.6 1152 133C1024 106.4 896 79.7999 768 70.9056C640 62.3437 512 70.6562 384 62.0943C256 53.2 128 26.5999 64 13.2999L0 -4.57764e-05H64C128 -4.57764e-05 256 -4.57764e-05 384 -4.57764e-05C512 -4.57764e-05 640 -4.57764e-05 768 -4.57764e-05C896 -4.57764e-05 1024 -4.57764e-05 1152 -4.57764e-05C1280 -4.57764e-05 1408 -4.57764e-05 1536 -4.57764e-05C1664 -4.57764e-05 1792 -4.57764e-05 1856 -4.57764e-05H1920V133Z" fill="#2563EB" fill-opacity="0.9"/>
    </g>
    <defs>
        <clipPath id="clip0_13_43">
            <rect width="1920" height="266" fill="white" transform="translate(1920 266) rotate(-180)"/>
        </clipPath>
    </defs>
</svg>
