<svg width="1920" height="266" viewBox="0 0 1920 266" fill="none" xmlns="http://www.w3.org/2000/svg">
    <g clip-path="url(#clip0_13_17)">
        <path d="M0 133L64.4 119.7C128.8 106.4 257.6 79.8 386.4 79.8C515.2 79.8 644 106.4 772.8 133C901.6 159.6 1030.4 186.2 1159.2 195.094C1288 203.656 1416.8 195.344 1545.6 203.906C1674.4 212.8 1803.2 239.4 1867.6 252.7L1932 266H1867.6C1803.2 266 1674.4 266 1545.6 266C1416.8 266 1288 266 1159.2 266C1030.4 266 901.6 266 772.8 266C644 266 515.2 266 386.4 266C257.6 266 128.8 266 64.4 266H0L0 133Z" fill="#2563EB" fill-opacity="0.9"/>
    </g>
    <defs>
        <clipPath id="clip0_13_17">
            <rect width="1932" height="266" fill="white"/>
        </clipPath>
    </defs>
</svg>