<?xml version="1.0" ?><svg width="512px" height="512px" viewBox="0 0 512 512" id="Layer_1" style="enable-background:new 0 0 512 512;" version="1.1" xml:space="preserve" xmlns="http://www.w3.org/2000/svg" xmlns:xlink="http://www.w3.org/1999/xlink"><style type="text/css">
	.st0{fill:#ffffff;}
</style><g><path class="st0" d="M161.5,316c20.3,0,36.8-16.5,36.8-36.8s-16.5-36.8-36.8-36.8s-36.8,16.5-36.8,36.8S141.2,316,161.5,316z    M161.5,256.5c12.5,0,22.8,10.2,22.8,22.8S174,302,161.5,302s-22.8-10.2-22.8-22.8S148.9,256.5,161.5,256.5z"/><path class="st0" d="M34.7,373.7l41.2-2c5.9,16.2,14.3,31.3,24.9,45l-19,53.3c-1.9,5.3-1.1,11.1,2.1,15.7s8.5,7.3,14,7.3h36.4   c7.2,0,13.7-4.6,16.2-11.4l6.5-18.2c23.7,12.1,50,18.5,76.8,18.5s53.1-6.4,76.8-18.5l6.5,18.2c2.4,6.8,8.9,11.4,16.2,11.4h36.4   c5.6,0,10.8-2.7,14-7.3c3.2-4.6,4-10.4,2.1-15.7l-19.1-53.3c14.9-19.3,25.5-41.7,30.9-65.3c17.5-0.2,31.7-14.6,31.7-32.1   c0-16.8-13-30.7-29.5-32c-3.7-23.4-12.4-45.7-25.3-65.5c50.4-6,89.7-49,89.7-101C464.3,64.7,418.6,19,362.5,19   S260.8,64.7,260.8,120.8c0,9.5,1.3,18.8,3.8,27.7c-10.1-1.9-20.4-2.8-30.7-2.8c-14.6,0-29.1,1.9-43.1,5.6   c-24.2-18.3-53.3-24.9-84.3-19.1c-24.1,4.6-40.8,15-41.5,15.4c-1.8,1.1-3,3-3.2,5.1c-0.2,2.1,0.5,4.2,2,5.7l44.1,44.1   C94,218.1,83.1,236.4,76,255.9l-41.2-2c-1.9-0.1-3.8,0.6-5.2,1.9c-1.4,1.3-2.2,3.2-2.2,5.1v105.8c0,1.9,0.8,3.7,2.2,5.1   C30.9,373.1,32.8,373.8,34.7,373.7z M415.5,319.3c0,8.9-6.5,16.4-15,17.9c0-0.3,0.1-0.6,0.1-1c0.2-1.3,0.3-2.6,0.5-3.9   c0.1-0.6,0.1-1.2,0.2-1.8c0.2-1.5,0.3-3,0.4-4.6c0-0.4,0.1-0.9,0.1-1.3c0.1-1.4,0.2-2.7,0.2-4.1c0-0.6,0-1.2,0.1-1.8   c0-1.4,0.1-2.9,0.1-4.3c0-0.2,0-0.5,0-0.7c0-0.4,0-0.9,0-1.3c0-1.4,0-2.7-0.1-4.1c0-0.8-0.1-1.6-0.1-2.4c0-1.1-0.1-2.1-0.2-3.2   c0-0.3,0-0.7-0.1-1C409.6,303.6,415.5,310.8,415.5,319.3z M362.5,33c48.4,0,87.8,39.4,87.8,87.8c0,47.6-38.1,86.4-85.3,87.7   c-0.7-0.9-1.4-1.7-2.1-2.6c-0.3-0.3-0.6-0.6-0.8-1c-0.4-0.5-0.9-1-1.3-1.6c-0.3-0.4-0.7-0.7-1-1.1c-0.4-0.5-0.8-0.9-1.2-1.4   c-0.3-0.4-0.7-0.8-1.1-1.1c-0.4-0.4-0.8-0.9-1.2-1.3c-0.4-0.4-0.7-0.8-1.1-1.1c-0.4-0.4-0.8-0.8-1.2-1.3c-0.4-0.4-0.8-0.8-1.1-1.1   c-0.4-0.4-0.8-0.8-1.2-1.2c-0.4-0.4-0.8-0.8-1.2-1.1c-0.3-0.3-0.7-0.7-1.1-1c4.3,0.8,8.7,1.2,13.2,1.2c39.7,0,72-32.3,72-72   s-32.3-72-72-72s-72,32.3-72,72c0,14.5,4.3,28.1,11.8,39.4c-0.5-0.2-1-0.5-1.5-0.7c-0.5-0.2-0.9-0.4-1.4-0.6   c-0.6-0.2-1.1-0.5-1.7-0.7c-0.5-0.2-0.9-0.4-1.4-0.6c-0.6-0.2-1.2-0.5-1.7-0.7c-0.5-0.2-0.9-0.4-1.4-0.5c-0.6-0.2-1.2-0.4-1.8-0.7   c-0.4-0.2-0.9-0.3-1.3-0.5c-0.6-0.2-1.3-0.5-2-0.7c-0.4-0.1-0.8-0.3-1.2-0.4c-0.8-0.3-1.5-0.5-2.3-0.7c-0.3-0.1-0.6-0.2-0.9-0.3   c-1-0.3-2.1-0.6-3.2-0.9c-3.9-10-5.8-20.6-5.8-31.5C274.8,72.4,314.2,33,362.5,33z M304.5,120.8c0-32,26-58,58-58s58,26,58,58   s-26,58-58,58S304.5,152.8,304.5,120.8z M41.4,268.2l39.1,1.9c3.1,0.2,6-1.8,7-4.8c7.1-21.6,19.3-41.7,35.1-58.2   c2.6-2.7,2.6-7.1-0.1-9.8l-42.1-42.1c18-8.4,63.6-23.9,104.4,9.1c1.8,1.4,4.1,1.9,6.3,1.3c13.8-4,28.2-6,42.7-6   c13.5,0,26.8,1.7,39.7,5.2c4.1,1.1,8.1,2.3,12,3.7c2,0.7,3.9,1.5,5.9,2.2c1,0.4,1.9,0.8,2.9,1.2c1.3,0.5,2.5,1.1,3.8,1.7   c16.8,7.8,32.3,18.6,45.3,31.8c4.4,4.5,8.6,9.3,12.5,14.3c0,0,0,0,0,0c16.9,21.9,27.6,48,30.9,75.5c0.7,6.1,1.1,12.3,1.1,18.5   c0,9.7-0.9,19.4-2.7,28.8c0,0,0,0,0,0c-4.7,24.9-15.7,48.6-31.8,68.4c-1.5,1.9-2,4.5-1.2,6.8l20.4,57c0.5,1.3,0,2.4-0.4,2.9   c-0.4,0.5-1.2,1.4-2.6,1.4h-36.4c-1.3,0-2.5-0.8-3-2.1l-9.3-25.9c-0.7-2-2.2-3.5-4.2-4.2c-0.8-0.3-1.6-0.4-2.4-0.4   c-1.2,0-2.4,0.3-3.5,0.9c-23.3,13.5-50,20.7-77.1,20.7s-53.8-7.1-77.1-20.7c-1.8-1-4-1.2-5.9-0.5c-2,0.7-3.5,2.3-4.2,4.2l-9.3,25.9   c-0.4,1.3-1.6,2.1-3,2.1H98c-1.4,0-2.2-0.8-2.6-1.3c-0.4-0.5-0.9-1.5-0.4-2.9l20.4-57c0.8-2.3,0.4-4.9-1.2-6.8   c-11.9-14.6-20.9-31-26.7-48.8c-1-3-3.9-5-7-4.8l-39.1,1.9V268.2z"/><path class="st0" d="M367.8,159.3v-5.9c12.5-1.2,21-8.4,21-19.3c0-10.6-6.4-16.6-21.4-20.3v-19c3.4,0.8,6.7,2.3,10.2,4.3   c1,0.6,2,0.9,3,0.9c3.1,0,5.5-2.4,5.5-5.4c0-2.4-1.4-3.8-3-4.7c-4.5-2.9-9.5-4.7-15.3-5.4v-2.2c0-2.4-1.9-4.2-4.3-4.2   s-4.3,1.9-4.3,4.2v2.1c-12.3,1-20.7,8.3-20.7,18.9c0,4.5,1.1,8.1,3.4,11c3.3,4.3,9.2,7.1,17.7,9.3V143c-5.4-1-10-3.3-14.6-6.6   c-0.9-0.7-2.1-1.1-3.3-1.1c-3.1,0-5.4,2.4-5.4,5.4c0,2.1,1,3.6,2.7,4.7c6,4.2,12.8,6.9,20.2,7.7v6.1c0,2.4,2,4.2,4.3,4.2   S367.8,161.6,367.8,159.3z M367.4,125.4c7.6,2.4,9.8,5,9.8,9.4c0,4.7-3.5,7.9-9.8,8.6V125.4z M359.6,111.7c-1.5-0.5-2.8-1-3.9-1.5   c0,0,0,0,0,0c-4.3-2.1-5.5-4.4-5.5-7.7c0-4.3,3.2-7.7,9.5-8.3V111.7z"/><path class="st0" d="M200.7,109.9c16.3,0,29.6-13.3,29.6-29.6S217,50.7,200.7,50.7S171.1,64,171.1,80.3S184.3,109.9,200.7,109.9z    M200.7,64.7c8.6,0,15.6,7,15.6,15.6c0,8.6-7,15.6-15.6,15.6s-15.6-7-15.6-15.6C185.1,71.7,192.1,64.7,200.7,64.7z"/><path class="st0" d="M423.6,252.1c0,16.8,13.7,30.5,30.5,30.5s30.5-13.7,30.5-30.5s-13.7-30.5-30.5-30.5S423.6,235.2,423.6,252.1z    M470.6,252.1c0,9.1-7.4,16.5-16.5,16.5s-16.5-7.4-16.5-16.5s7.4-16.5,16.5-16.5S470.6,243,470.6,252.1z"/></g></svg>