<?xml version="1.0" ?><svg width="512px" height="512px" viewBox="0 0 512 512" id="Layer_1" style="enable-background:new 0 0 512 512;" version="1.1" xml:space="preserve" xmlns="http://www.w3.org/2000/svg" xmlns:xlink="http://www.w3.org/1999/xlink"><style type="text/css">
	.st0{fill:#ffffff;}
</style><g><path class="st0" d="M263.6,245v-29.9c5.3,1.2,10.6,3.6,16,6.8c1.6,0.9,3.1,1.4,4.7,1.4c4.8,0,8.7-3.7,8.7-8.6   c0-3.7-2.2-6.1-4.7-7.5c-7.2-4.5-14.9-7.5-24.1-8.6v-3.4c0-3.7-3-6.7-6.7-6.7c-3.7,0-6.8,3-6.8,6.7v3.3   c-19.4,1.6-32.7,13.1-32.7,29.7c0,17.6,10.6,26.1,33.3,32V291c-8.6-1.6-15.7-5.1-23-10.4c-1.4-1.1-3.3-1.7-5.1-1.7   c-4.8,0-8.6,3.7-8.6,8.6c0,3.3,1.6,5.8,4.2,7.5c9.5,6.7,20.2,10.9,31.9,12.1v9.6c0,3.7,3.1,6.7,6.8,6.7c3.7,0,6.7-3,6.7-6.7v-9.3   c19.8-1.9,33.1-13.2,33.1-30.3C297.4,260.4,287.3,250.9,263.6,245z M251.3,241.7c-12-3.9-14.9-7.9-14.9-14.5   c0-6.8,5-12.1,14.9-13.1V241.7z M263.6,291.6v-28.3c12,3.7,15.4,7.9,15.4,14.8C279,285.6,273.6,290.5,263.6,291.6z"/><path class="st0" d="M256,152.4c-14.8,0-29.2,3.1-42.6,9.1c-37.1,16.7-61,53.8-61,94.5c0,1.1,0,2.3,0.1,3.4c0.9,27,12,52.2,31.4,71   c19.4,18.9,45.1,29.2,72.1,29.2c57.1,0,103.6-46.5,103.6-103.6S313.1,152.4,256,152.4z M256,345.6c-48.7,0-88-38.1-89.6-86.7   c0-1,0-1.9,0-2.9c0-35.2,20.7-67.2,52.8-81.7c11.6-5.2,24-7.9,36.8-7.9c49.4,0,89.6,40.2,89.6,89.6S305.4,345.6,256,345.6z"/><path class="st0" d="M256,114.7c-20.2,0-39.8,4.2-58.1,12.4c-50.6,22.8-83.2,73.4-83.2,128.9c0,1.7,0,3.2,0.1,4.6   c1.2,36.8,16.4,71.2,42.9,96.8c26.5,25.7,61.5,39.9,98.4,39.9c77.9,0,141.3-63.4,141.3-141.3S333.9,114.7,256,114.7z M256,383.3   c-69.1,0-125-54.1-127.3-123.2c0-1.3-0.1-2.6-0.1-4.1c0-50,29.4-95.5,75-116.1c16.5-7.4,34.1-11.2,52.3-11.2   c70.2,0,127.3,57.1,127.3,127.3S326.2,383.3,256,383.3z"/><path class="st0" d="M208.5,105.8c3.9,0,7-3.1,7-7V61.2c8.6-2.9,14.8-11.1,14.8-20.7c0-12-9.8-21.8-21.8-21.8s-21.8,9.8-21.8,21.8   c0,9.6,6.2,17.8,14.8,20.7v37.7C201.5,102.7,204.6,105.8,208.5,105.8z M208.5,32.7c4.3,0,7.8,3.5,7.8,7.8s-3.5,7.8-7.8,7.8   s-7.8-3.5-7.8-7.8S204.2,32.7,208.5,32.7z"/><path class="st0" d="M303.5,105.8c3.9,0,7-3.1,7-7V61.2c8.6-2.9,14.8-11.1,14.8-20.7c0-12-9.8-21.8-21.8-21.8s-21.8,9.8-21.8,21.8   c0,9.6,6.2,17.8,14.8,20.7v37.7C296.5,102.7,299.6,105.8,303.5,105.8z M303.5,32.7c4.3,0,7.8,3.5,7.8,7.8s-3.5,7.8-7.8,7.8   s-7.8-3.5-7.8-7.8S299.2,32.7,303.5,32.7z"/><path class="st0" d="M215.5,450.8v-37.7c0-3.9-3.1-7-7-7s-7,3.1-7,7v37.7c-8.6,2.9-14.8,11.1-14.8,20.7c0,12,9.8,21.8,21.8,21.8   s21.8-9.8,21.8-21.8C230.3,461.9,224.1,453.7,215.5,450.8z M208.5,479.3c-4.3,0-7.8-3.5-7.8-7.8s3.5-7.8,7.8-7.8s7.8,3.5,7.8,7.8   S212.8,479.3,208.5,479.3z"/><path class="st0" d="M310.5,450.8v-37.7c0-3.9-3.1-7-7-7s-7,3.1-7,7v37.7c-8.6,2.9-14.8,11.1-14.8,20.7c0,12,9.8,21.8,21.8,21.8   s21.8-9.8,21.8-21.8C325.3,461.9,319.1,453.7,310.5,450.8z M303.5,479.3c-4.3,0-7.8-3.5-7.8-7.8s3.5-7.8,7.8-7.8s7.8,3.5,7.8,7.8   S307.8,479.3,303.5,479.3z"/><path class="st0" d="M107.5,183.4H91v-50c0-3.9-3.1-7-7-7H54.8c-2.9-8.6-11.1-14.8-20.7-14.8c-12,0-21.8,9.8-21.8,21.8   s9.8,21.8,21.8,21.8c9.6,0,17.8-6.2,20.7-14.8H77v50c0,3.9,3.1,7,7,7h23.5c3.9,0,7-3.1,7-7S111.4,183.4,107.5,183.4z M34.2,141.3   c-4.3,0-7.8-3.5-7.8-7.8s3.5-7.8,7.8-7.8s7.8,3.5,7.8,7.8S38.5,141.3,34.2,141.3z"/><path class="st0" d="M107.5,314.6H84c-3.9,0-7,3.1-7,7v50H54.8c-2.9-8.6-11.1-14.8-20.7-14.8c-12,0-21.8,9.8-21.8,21.8   s9.8,21.8,21.8,21.8c9.6,0,17.8-6.2,20.7-14.8H84c3.9,0,7-3.1,7-7v-50h16.5c3.9,0,7-3.1,7-7S111.4,314.6,107.5,314.6z M34.2,386.4   c-4.3,0-7.8-3.5-7.8-7.8s3.5-7.8,7.8-7.8s7.8,3.5,7.8,7.8S38.5,386.4,34.2,386.4z"/><path class="st0" d="M64.3,262.4H98c3.9,0,7-3.1,7-7s-3.1-7-7-7H64.3c-2.9-8.6-11.1-14.8-20.7-14.8c-12,0-21.8,9.8-21.8,21.8   s9.8,21.8,21.8,21.8C53.3,277.3,61.4,271,64.3,262.4z M35.8,255.4c0-4.3,3.5-7.8,7.8-7.8s7.8,3.5,7.8,7.8s-3.5,7.8-7.8,7.8   S35.8,259.7,35.8,255.4z"/><path class="st0" d="M477.8,111.6c-9.6,0-17.8,6.2-20.7,14.8H428c-3.9,0-7,3.1-7,7v50h-16.5c-3.9,0-7,3.1-7,7s3.1,7,7,7H428   c3.9,0,7-3.1,7-7v-50h22.2c2.9,8.6,11.1,14.8,20.7,14.8c12,0,21.8-9.8,21.8-21.8S489.9,111.6,477.8,111.6z M477.8,141.3   c-4.3,0-7.8-3.5-7.8-7.8s3.5-7.8,7.8-7.8s7.8,3.5,7.8,7.8S482.2,141.3,477.8,141.3z"/><path class="st0" d="M477.8,356.8c-9.6,0-17.8,6.2-20.7,14.8H435v-50c0-3.9-3.1-7-7-7h-23.5c-3.9,0-7,3.1-7,7s3.1,7,7,7H421v50   c0,3.9,3.1,7,7,7h29.2c2.9,8.6,11.1,14.8,20.7,14.8c12,0,21.8-9.8,21.8-21.8S489.9,356.8,477.8,356.8z M477.8,386.4   c-4.3,0-7.8-3.5-7.8-7.8s3.5-7.8,7.8-7.8s7.8,3.5,7.8,7.8S482.2,386.4,477.8,386.4z"/><path class="st0" d="M447.7,262.4c2.9,8.6,11.1,14.8,20.7,14.8c12,0,21.8-9.8,21.8-21.8s-9.8-21.8-21.8-21.8   c-9.6,0-17.8,6.2-20.7,14.8H414c-3.9,0-7,3.1-7,7s3.1,7,7,7H447.7z M468.3,247.6c4.3,0,7.8,3.5,7.8,7.8s-3.5,7.8-7.8,7.8   s-7.8-3.5-7.8-7.8S464,247.6,468.3,247.6z"/></g></svg>