<?xml version="1.0" ?><svg width="512px" height="512px" viewBox="0 0 512 512" id="Layer_1" style="enable-background:new 0 0 512 512;" version="1.1" xml:space="preserve" xmlns="http://www.w3.org/2000/svg" xmlns:xlink="http://www.w3.org/1999/xlink"><style type="text/css">
	.st0{fill:#ffffff;}
</style><g><path class="st0" d="M273,406.1c81.1,0,147.1-66,147.1-147.1c0-81.1-66-147.1-147.1-147.1s-147.1,66-147.1,147.1   C125.8,340.1,191.8,406.1,273,406.1z M273,125.8c73.4,0,133.1,59.7,133.1,133.1S346.4,392.1,273,392.1S139.8,332.4,139.8,259   S199.6,125.8,273,125.8z"/><path class="st0" d="M204.9,296.5l-11.3,18.1c-1.7,2.8-1.3,6.4,1,8.7l14.1,14.1c2.3,2.3,5.9,2.7,8.7,1l18.1-11.3   c5,2.8,10.4,5,15.9,6.6l4.8,20.8c0.7,3.2,3.6,5.4,6.8,5.4h20c3.3,0,6.1-2.3,6.8-5.4l4.8-20.8c5.5-1.6,10.9-3.8,15.9-6.6l18.1,11.3   c2.8,1.7,6.4,1.3,8.7-1l14.1-14.1c2.3-2.3,2.7-5.9,1-8.7L341,296.5c2.8-5,5-10.4,6.6-15.9l20.8-4.8c3.2-0.7,5.4-3.6,5.4-6.8v-20   c0-3.3-2.3-6.1-5.4-6.8l-20.8-4.8c-1.6-5.5-3.8-10.9-6.6-15.9l11.3-18.1c1.7-2.8,1.3-6.4-1-8.7l-14.1-14.1c-2.3-2.3-5.9-2.7-8.7-1   l-18.1,11.3c-5-2.8-10.4-5-15.9-6.6l-4.8-20.8c-0.7-3.2-3.6-5.4-6.8-5.4h-20c-3.3,0-6.1,2.3-6.8,5.4l-4.8,20.8   c-5.5,1.6-10.8,3.8-15.9,6.6l-18.1-11.3c-2.8-1.7-6.4-1.3-8.7,1l-14.1,14.1c-2.3,2.3-2.7,5.9-1,8.7l11.3,18.1   c-2.8,5-5,10.4-6.6,15.9l-20.8,4.8c-3.2,0.7-5.4,3.6-5.4,6.8v20c0,3.3,2.3,6.1,5.4,6.8l20.8,4.8C200,286.1,202.2,291.4,204.9,296.5   z M186.1,254.6l19.5-4.5c2.6-0.6,4.7-2.7,5.3-5.3c1.6-7,4.3-13.6,8.2-19.7c1.4-2.3,1.4-5.2,0-7.4l-10.6-17l6.2-6.2l17,10.6   c2.3,1.4,5.2,1.4,7.4,0c6.1-3.8,12.7-6.6,19.7-8.2c2.6-0.6,4.7-2.6,5.3-5.3l4.5-19.5h8.8l4.5,19.5c0.6,2.6,2.7,4.7,5.3,5.3   c7,1.6,13.6,4.3,19.7,8.2c2.3,1.4,5.2,1.4,7.4,0l17-10.6l6.2,6.2l-10.6,17c-1.4,2.3-1.4,5.2,0,7.4c3.8,6.1,6.6,12.7,8.2,19.7   c0.6,2.6,2.6,4.7,5.3,5.3l19.5,4.5v8.8l-19.5,4.5c-2.6,0.6-4.7,2.7-5.3,5.3c-1.6,7-4.3,13.6-8.2,19.7c-1.4,2.3-1.4,5.2,0,7.4   l10.6,17l-6.2,6.2l-17-10.6c-2.3-1.4-5.2-1.4-7.4,0c-6.1,3.8-12.7,6.6-19.7,8.2c-2.6,0.6-4.7,2.6-5.3,5.3l-4.5,19.5h-8.8l-4.5-19.5   c-0.6-2.6-2.7-4.7-5.3-5.3c-7-1.6-13.6-4.3-19.7-8.2c-2.3-1.4-5.2-1.4-7.4,0l-17,10.6l-6.2-6.2l10.6-17c1.4-2.3,1.4-5.2,0-7.4   c-3.8-6.1-6.6-12.7-8.2-19.7c-0.6-2.6-2.6-4.7-5.3-5.3l-19.5-4.5V254.6z"/><path class="st0" d="M273,294.7c19.7,0,35.7-16,35.7-35.7c0-19.7-16-35.7-35.7-35.7s-35.7,16-35.7,35.7   C237.3,278.7,253.3,294.7,273,294.7z M273,237.3c12,0,21.7,9.7,21.7,21.7s-9.7,21.7-21.7,21.7s-21.7-9.7-21.7-21.7   S261,237.3,273,237.3z"/><path class="st0" d="M371.5,486.8h55.9c3.9,0,7-3.1,7-7v-23.7h16.4c10.7,0,19.3-8.7,19.3-19.3V81.2c0-10.7-8.7-19.3-19.3-19.3   h-33.3V32.2c0-3.9-3.1-7-7-7H365c-3.9,0-7,3.1-7,7v29.7h-17.3V32.2c0-3.9-3.1-7-7-7H135.5c-3.9,0-7,3.1-7,7v29.7H95.2   c-10.7,0-19.3,8.7-19.3,19.3v52.3h-27c-3.9,0-7,3.1-7,7v92.6c0,3.9,3.1,7,7,7h27v37.9h-27c-3.9,0-7,3.1-7,7v92.6c0,3.9,3.1,7,7,7   h27v52.3c0,10.7,8.7,19.3,19.3,19.3h16.4v23.7c0,3.9,3.1,7,7,7h55.9c3.9,0,7-3.1,7-7v-23.7h183v23.7   C364.5,483.7,367.6,486.8,371.5,486.8z M420.4,472.8h-41.9v-16.7h41.9V472.8z M372,39.2h31.5v22.7H372V39.2z M142.5,39.2h184.2   v22.7H142.5V39.2z M55.9,226.1v-78.6h20v78.6H55.9z M55.9,370.5v-78.6h20v78.6H55.9z M89.8,436.8v-59.3v-92.6v-51.9v-92.6V81.2   c0-2.9,2.4-5.3,5.3-5.3h40.3h198.2H365h45.5h40.3c2.9,0,5.3,2.4,5.3,5.3v355.6c0,2.9-2.4,5.3-5.3,5.3h-23.4h-55.9h-197h-55.9H95.2   C92.2,442.1,89.8,439.7,89.8,436.8z M167.5,472.8h-41.9v-16.7h41.9V472.8z"/></g></svg>