<?xml version="1.0" ?><svg width="512px" height="512px" viewBox="0 0 512 512" id="Layer_1" style="enable-background:new 0 0 512 512;" version="1.1" xml:space="preserve" xmlns="http://www.w3.org/2000/svg" xmlns:xlink="http://www.w3.org/1999/xlink"><style type="text/css">
	.st0{fill:#ffffff;}
</style><g><path class="st0" d="M264.4,196c2,0,3.9-0.9,5.2-2.3c7.2-8.1,21-13.1,36-13.1c15,0,28.8,5,36,13.1c1.3,1.5,3.2,2.3,5.2,2.3h12.7   c2,0,3.9-0.9,5.2-2.3c7.2-8.1,21-13.1,36-13.1c12.8,0,24.6,3.6,32.5,9.8c2.2,1.7,5.3,2,7.7,0.6c2.5-1.4,3.9-4.1,3.6-6.9   C439.6,138,417.8,95.3,383.2,64c-34.8-31.5-79.9-48.9-126.9-48.9c0,0-0.1,0-0.1,0c0,0,0,0-0.1,0c0,0,0,0-0.1,0c0,0,0,0-0.1,0   c-47.7,0-93.2,17.8-128.3,50.2C92.9,97.4,71.5,141,67.4,188.1c-0.3,3,1.4,5.8,4.2,7c2.7,1.2,6,0.5,8-1.7c7.3-7.9,21-12.9,35.7-12.9   c15,0,28.8,5,36,13.1c1.3,1.5,3.2,2.3,5.2,2.3h12.7c2,0,3.9-0.9,5.2-2.3c7.2-8.1,21-13.1,36-13.1c15,0,28.8,5,36,13.1   c0.8,0.8,1.7,1.5,2.7,1.9v11.9c-18.3,0.8-36,5.1-52.7,12.6c-51.8,23.4-85.3,75.2-85.3,132c0,1.8,0,3.3,0.1,4.7   c1.2,37.7,16.8,72.9,43.9,99.2c27.2,26.3,63,40.9,100.8,40.9c79.8,0,144.8-65,144.8-144.8c0-77.4-61.1-140.9-137.6-144.6V196H264.4   z M305.6,166.6c-16.8,0-32.2,5.1-42.4,13.9V32.8c8.6,4.4,22,12.6,35.5,26.7c19.6,20.4,42.7,57.1,45.4,117.9   C334,170.5,320.3,166.6,305.6,166.6z M428.6,171.8c-8.3-3.4-17.9-5.2-27.8-5.2c-16.9,0-32.4,5.2-42.6,14   c-2-67.4-27.7-108.2-49.4-130.8c-6.9-7.2-13.9-13.1-20.3-17.8C359,45.1,415.2,100.2,428.6,171.8z M115.3,166.6   c-11.7,0-22.8,2.5-31.8,7c12.8-71.5,69.7-127.9,140.2-141.4c-6.4,4.7-13.2,10.5-20.1,17.6c-21.4,22.3-46.7,62.3-49.3,128   C144.2,170.7,130.3,166.6,115.3,166.6z M210.5,166.6c-16.7,0-32,5.1-42.3,13.7c1.6-50.1,16.7-90.5,45-120.3   c13.6-14.3,27.3-22.8,36-27.2v144.8C239.1,170.6,225.3,166.6,210.5,166.6z M386.8,352.1c0,72.1-58.7,130.8-130.8,130.8   c-71,0-128.4-55.6-130.7-126.5c0-1.3-0.1-2.6-0.1-4.3c0-51.3,30.2-98.1,77-119.3c17-7.6,35.1-11.5,53.8-11.5   C328.1,221.3,386.8,280,386.8,352.1z"/><path class="st0" d="M251.2,296.9v3c-17.7,1.4-29.7,11.9-29.7,27c0,16,9.6,23.8,30.3,29.2V384c-7.8-1.4-14.3-4.7-21-9.5   c-1.3-1-3-1.6-4.7-1.6c-4.4,0-7.8,3.4-7.8,7.8c0,3,1.4,5.2,3.8,6.8c8.6,6.1,18.4,9.9,29,11v8.8c0,3.4,2.8,6.1,6.2,6.1   c3.4,0,6.1-2.7,6.1-6.1v-8.5c18-1.7,30.2-12,30.2-27.6c0-15.2-9.2-23.8-30.7-29.2v-27.2c4.8,1.1,9.6,3.3,14.6,6.2   c1.4,0.8,2.8,1.3,4.2,1.3c4.4,0,7.9-3.4,7.9-7.8c0-3.4-2-5.5-4.2-6.8c-6.5-4.1-13.6-6.8-22-7.8v-3.1c0-3.4-2.7-6.1-6.1-6.1   C254,290.8,251.2,293.5,251.2,296.9z M251.7,339.1c-10.9-3.5-13.6-7.2-13.6-13.2c0-6.2,4.5-11,13.6-11.9V339.1z M262.9,358.8   c10.9,3.4,14,7.2,14,13.5c0,6.8-5,11.3-14,12.3V358.8z"/><path class="st0" d="M211.6,253.7C173,271.1,148,309.8,148,352.1c0,1.2,0,2.4,0.1,3.5c0.9,28.1,12.5,54.4,32.7,74   c20.3,19.6,46.9,30.5,75.2,30.5c59.5,0,108-48.4,108-108s-48.4-108-108-108C240.6,244.2,225.6,247.4,211.6,253.7z M350,352.1   c0,51.8-42.2,94-94,94c-51,0-92.3-39.9-93.9-90.9c0-1,0-2,0-3.1c0-36.9,21.7-70.5,55.3-85.7c12.2-5.5,25.2-8.3,38.6-8.3   C307.8,258.2,350,300.3,350,352.1z"/></g></svg>